<svg width="21" height="21" viewBox="0 0 21 21" fill="none" xmlns="http://www.w3.org/2000/svg">
<path d="M17.2269 18.1325L11.9139 12.8195C11.4922 13.1568 11.0073 13.4239 10.4591 13.6207C9.91096 13.8174 9.32765 13.9158 8.70921 13.9158C7.17715 13.9158 5.88053 13.3852 4.81933 12.324C3.75814 11.2628 3.22754 9.96621 3.22754 8.43415C3.22754 6.9021 3.75814 5.60547 4.81933 4.54428C5.88053 3.48308 7.17715 2.95248 8.70921 2.95248C10.2413 2.95248 11.5379 3.48308 12.5991 4.54428C13.6603 5.60547 14.1909 6.9021 14.1909 8.43415C14.1909 9.0526 14.0925 9.6359 13.8957 10.1841C13.6989 10.7322 13.4319 11.2172 13.0945 11.6388L18.4075 16.9518L17.2269 18.1325ZM8.70921 12.2292C9.76337 12.2292 10.6594 11.8602 11.3973 11.1223C12.1352 10.3844 12.5042 9.48832 12.5042 8.43415C12.5042 7.37998 12.1352 6.48394 11.3973 5.74603C10.6594 5.00811 9.76337 4.63915 8.70921 4.63915C7.65504 4.63915 6.759 5.00811 6.02108 5.74603C5.28316 6.48394 4.91421 7.37998 4.91421 8.43415C4.91421 9.48832 5.28316 10.3844 6.02108 11.1223C6.759 11.8602 7.65504 12.2292 8.70921 12.2292Z" fill="#185EAF"/>
</svg>
