<svg width="33" height="34" viewBox="0 0 33 34" fill="none" xmlns="http://www.w3.org/2000/svg">
<path d="M12.7314 30.9041L12.1832 26.5188C11.8863 26.4046 11.6065 26.2675 11.3438 26.1077C11.0812 25.9478 10.8242 25.7765 10.573 25.5938L6.49597 27.3068L2.72733 20.7973L6.25615 18.125C6.23331 17.9651 6.22189 17.8109 6.22189 17.6625V16.7374C6.22189 16.589 6.23331 16.4348 6.25615 16.2749L2.72733 13.6026L6.49597 7.09313L10.573 8.80615C10.8242 8.62343 11.0869 8.45213 11.361 8.29225C11.635 8.13237 11.9091 7.99532 12.1832 7.88112L12.7314 3.49579H20.2687L20.8168 7.88112C21.1137 7.99532 21.3935 8.13237 21.6562 8.29225C21.9189 8.45213 22.1758 8.62343 22.4271 8.80615L26.5041 7.09313L30.2727 13.6026L26.7439 16.2749C26.7667 16.4348 26.7781 16.589 26.7781 16.7374V17.6625C26.7781 17.8109 26.7553 17.9651 26.7096 18.125L30.2384 20.7973L26.4698 27.3068L22.4271 25.5938C22.1758 25.7765 21.9132 25.9478 21.6391 26.1077C21.365 26.2675 21.0909 26.4046 20.8168 26.5188L20.2687 30.9041H12.7314ZM16.5685 21.9964C17.8933 21.9964 19.0239 21.5282 19.9603 20.5917C20.8968 19.6553 21.365 18.5247 21.365 17.2C21.365 15.8752 20.8968 14.7446 19.9603 13.8082C19.0239 12.8717 17.8933 12.4035 16.5685 12.4035C15.221 12.4035 14.0847 12.8717 13.1596 13.8082C12.2346 14.7446 11.7721 15.8752 11.7721 17.2C11.7721 18.5247 12.2346 19.6553 13.1596 20.5917C14.0847 21.5282 15.221 21.9964 16.5685 21.9964Z" fill="#185EAF"/>
</svg>
